# xmcd CD database file
#
# Track frame offsets:
#	150
#	10870
#	21240
#	31957
#	41977
#	54745
#	65819
#	74730
#	84010
#	93812
#	103740
#	111743
#	123823
#	137795
#
# Disc length: 2012 seconds
#
# Revision: 0
# Processed by: cddbd v1.4PL0 Copyright (c) Steve Scherf et al.
# Submitted via: CDex 1.40Release
#
DISCID=c707da0e
DTITLE=The Horton Brothers - Heave Ho
DYEAR=2000
DGENRE=Country
TTITLE0=Howdy Doody
TTITLE1=Heave Ho
TTITLE2=Who Clipped Sampson's Hair
TTITLE3=The Hard Way
TTITLE4=Jack in the Boogie Box
TTITLE5=Ricochet
TTITLE6=Let's Get Things Goin'
TTITLE7=Lovin' Lorene
TTITLE8=Two Faced
TTITLE9=I'm Gonna Love and Leave You
TTITLE10=I Guess I'm Just In Love
TTITLE11=I'm Sorry To Say I'm Sorry
TTITLE12=Three-Fifteen Blues
TTITLE13=I Always Had a Way With Women
EXTD=YEAR: 2000 ID3G: 2
EXTT0=
EXTT1=
EXTT2=
EXTT3=
EXTT4=
EXTT5=
EXTT6=
EXTT7=
EXTT8=
EXTT9=
EXTT10=
EXTT11=
EXTT12=
EXTT13=
PLAYORDER=
